<?xml version="1.0" encoding="UTF-8"?>
<!DOCTYPE svg PUBLIC "-//W3C//DTD SVG 1.1//EN" "http://www.w3.org/Graphics/SVG/1.1/DTD/svg11.dtd">
<svg xmlns="http://www.w3.org/2000/svg" version="1.1" width="512px" height="512px" style="shape-rendering:geometricPrecision; text-rendering:geometricPrecision; image-rendering:optimizeQuality; fill-rule:evenodd; clip-rule:evenodd" xmlns:xlink="http://www.w3.org/1999/xlink">
<g><path style="opacity:0.943" fill="#fbbc1c" d="M 56.5,32.5 C 64.6509,32.3413 67.6509,36.3413 65.5,44.5C 71.8268,42.9962 76.1601,45.1629 78.5,51C 76.1601,56.8371 71.8268,59.0038 65.5,57.5C 65.6646,60.5184 65.498,63.5184 65,66.5C 61.3333,70.5 57.6667,70.5 54,66.5C 53.502,63.5184 53.3354,60.5184 53.5,57.5C 50.0217,57.8158 46.6883,57.3158 43.5,56C 40.8333,52.6667 40.8333,49.3333 43.5,46C 46.6883,44.6842 50.0217,44.1842 53.5,44.5C 52.7688,39.9275 53.7688,35.9275 56.5,32.5 Z"/></g>
<g><path style="opacity:0.908" fill="#323332" d="M 238.5,53.5 C 274.17,51.4995 308.17,57.9995 340.5,73C 341.167,74.6667 341.833,76.3333 342.5,78C 340.789,82.8554 337.456,84.5221 332.5,83C 265.054,55.1969 201.054,61.5302 140.5,102C 132.538,108.294 124.871,114.96 117.5,122C 109.544,125.451 106.044,122.951 107,114.5C 143.456,78.3565 187.289,58.0232 238.5,53.5 Z"/></g>
<g><path style="opacity:0.964" fill="#343433" d="M 511.5,329.5 C 511.5,332.833 511.5,336.167 511.5,339.5C 507.892,346.298 502.225,348.798 494.5,347C 482.5,343 470.5,339 458.5,335C 455.211,333.59 453.544,331.09 453.5,327.5C 455.292,325.539 457.458,324.205 460,323.5C 471.893,327.131 483.726,330.964 495.5,335C 496.944,335.781 498.277,335.614 499.5,334.5C 456.174,310.63 431.674,273.963 426,224.5C 414.015,172.541 385.181,133.041 339.5,106C 271.882,71.7676 207.215,76.4343 145.5,120C 134.128,130.374 122.461,140.374 110.5,150C 80.108,169.014 47.108,176.18 11.5,171.5C 11.7093,172.086 12.0426,172.586 12.5,173C 103.811,203.659 195.145,234.326 286.5,265C 288.919,266.509 289.919,268.675 289.5,271.5C 287.447,274.853 284.447,276.02 280.5,275C 256.509,266.725 232.509,258.559 208.5,250.5C 196.167,246.5 183.833,242.5 171.5,238.5C 162.119,235.372 152.786,232.039 143.5,228.5C 132.029,274.752 143.696,314.252 178.5,347C 221.55,379.976 266.883,383.309 314.5,357C 335.138,343.525 350.138,325.358 359.5,302.5C 359.291,301.914 358.957,301.414 358.5,301C 350.101,298.256 341.768,295.423 333.5,292.5C 324.335,289.834 315.335,286.667 306.5,283C 304.771,281.211 304.104,279.044 304.5,276.5C 306.718,273.613 309.718,272.779 313.5,274C 351.5,286.667 389.5,299.333 427.5,312C 431.488,313.484 433.154,316.317 432.5,320.5C 431.308,322.922 429.308,323.922 426.5,323.5C 423.118,322.86 419.784,322.36 416.5,322C 390.893,382.931 345.559,419.597 280.5,432C 201.33,440.496 141.163,410.996 100,343.5C 77.9194,300.71 73.0861,256.044 85.5,209.5C 59.4252,201.309 33.4252,192.809 7.5,184C 4.30777,181.972 1.64111,179.472 -0.5,176.5C -0.5,173.167 -0.5,169.833 -0.5,166.5C 1.00833,162.827 3.67499,160.327 7.5,159C 44.7564,165.218 78.7564,157.552 109.5,136C 172.639,72.1354 246.305,56.1354 330.5,88C 395.554,120.441 432.721,172.941 442,245.5C 452.176,282.011 474.343,308.511 508.5,325C 509.399,326.652 510.399,328.152 511.5,329.5 Z"/></g>
<g><path style="opacity:1" fill="#e8c06e" d="M 453.5,327.5 C 451.833,326.833 450.167,326.167 448.5,325.5C 448.843,319.674 446.176,317.174 440.5,318C 439.29,319.039 438.29,320.206 437.5,321.5C 435.784,321.371 434.117,321.038 432.5,320.5C 433.154,316.317 431.488,313.484 427.5,312C 389.5,299.333 351.5,286.667 313.5,274C 309.718,272.779 306.718,273.613 304.5,276.5C 302.5,276.167 300.5,275.833 298.5,275.5C 295.5,274.167 292.5,272.833 289.5,271.5C 289.919,268.675 288.919,266.509 286.5,265C 195.145,234.326 103.811,203.659 12.5,173C 12.0426,172.586 11.7093,172.086 11.5,171.5C 47.108,176.18 80.108,169.014 110.5,150C 122.461,140.374 134.128,130.374 145.5,120C 207.215,76.4343 271.882,71.7676 339.5,106C 385.181,133.041 414.015,172.541 426,224.5C 431.674,273.963 456.174,310.63 499.5,334.5C 498.277,335.614 496.944,335.781 495.5,335C 483.726,330.964 471.893,327.131 460,323.5C 457.458,324.205 455.292,325.539 453.5,327.5 Z"/></g>
<g><path style="opacity:0.898" fill="#323332" d="M 360.5,87.5 C 363.649,87.2114 366.649,87.7114 369.5,89C 409.975,117.486 437.308,155.486 451.5,203C 449.05,208.69 445.216,209.857 440,206.5C 425.592,160.444 398.592,123.777 359,96.5C 358.068,93.1769 358.568,90.1769 360.5,87.5 Z"/></g>
<g><path style="opacity:1" fill="#fefdfb" d="M 235.5,94.5 C 304.839,90.9182 358.339,117.918 396,175.5C 405.067,191.702 411.567,208.868 415.5,227C 414.244,233.654 410.744,235.154 405,231.5C 390.351,167.85 351.518,127.35 288.5,110C 254.774,101.785 222.108,104.785 190.5,119C 183.51,121.005 180.676,118.505 182,111.5C 191.368,105.594 201.535,101.427 212.5,99C 220.326,97.5381 227.992,96.0381 235.5,94.5 Z"/></g>
<g><path style="opacity:1" fill="#fefdfb" d="M 164.5,119.5 C 171.839,120.014 173.839,123.514 170.5,130C 155.958,140.202 142.292,151.535 129.5,164C 123.121,168.769 116.288,172.603 109,175.5C 103.91,175.151 102.243,172.485 104,167.5C 118.991,157.85 132.824,146.684 145.5,134C 151.902,129.146 158.235,124.313 164.5,119.5 Z"/></g>
<g><path style="opacity:0.883" fill="#323332" d="M 88.5,127.5 C 97.832,127.402 100.165,131.235 95.5,139C 86.4771,144.67 76.8104,148.336 66.5,150C 62.7084,147.947 61.5418,144.781 63,140.5C 67.4916,137.673 72.325,135.506 77.5,134C 81.5599,132.311 85.2266,130.144 88.5,127.5 Z"/></g>
<g><path style="opacity:1" fill="#353433" d="M 362.5,208.5 C 359.635,208.945 357.135,208.278 355,206.5C 332.674,166.748 298.508,146.082 252.5,144.5C 221.373,145.258 194.706,156.424 172.5,178C 237.035,200.012 301.701,221.512 366.5,242.5C 365.725,235.567 364.392,228.733 362.5,222C 362.12,219.297 363.12,217.463 365.5,216.5C 368.652,215.959 371.152,216.959 373,219.5C 377.281,230.804 378.948,242.47 378,254.5C 376.883,256.124 375.383,257.124 373.5,257.5C 303.209,233.903 232.876,210.403 162.5,187C 156.994,185.159 155.494,181.659 158,176.5C 200.306,132.887 249.806,122.387 306.5,145C 333.158,157.325 352.824,176.658 365.5,203C 365.387,205.399 364.387,207.232 362.5,208.5 Z"/></g>
<g><path style="opacity:1" fill="#204f5a" d="M 362.5,208.5 C 363.5,211.167 364.5,213.833 365.5,216.5C 363.12,217.463 362.12,219.297 362.5,222C 364.392,228.733 365.725,235.567 366.5,242.5C 301.701,221.512 237.035,200.012 172.5,178C 194.706,156.424 221.373,145.258 252.5,144.5C 298.508,146.082 332.674,166.748 355,206.5C 357.135,208.278 359.635,208.945 362.5,208.5 Z"/></g>
<g><path style="opacity:1" fill="#fefdfb" d="M 72.5,171.5 C 74.8568,171.337 77.1902,171.503 79.5,172C 101.242,178.914 122.742,186.414 144,194.5C 145.817,201.856 142.983,204.689 135.5,203C 115.489,196.33 95.4891,189.663 75.5,183C 70.189,180.306 69.189,176.472 72.5,171.5 Z"/></g>
<g><path style="opacity:1" fill="#fefdfa" d="M 155.5,198.5 C 162.309,199.703 168.975,201.536 175.5,204C 178.835,206.679 179.335,209.845 177,213.5C 169.17,214.352 161.67,212.852 154.5,209C 151.64,205.151 151.973,201.651 155.5,198.5 Z"/></g>
<g><path style="opacity:1" fill="#fefdfb" d="M 192.5,211.5 C 194.527,211.338 196.527,211.505 198.5,212C 253.014,229.726 307.181,248.226 361,267.5C 362.329,273.834 359.829,276.668 353.5,276C 300.833,258.333 248.167,240.667 195.5,223C 188.845,220.548 187.845,216.715 192.5,211.5 Z"/></g>
<g><path style="opacity:1" fill="#f9ba20" d="M 97.5,213.5 C 108.694,217.565 120.028,221.231 131.5,224.5C 119.562,276.175 132.895,320.008 171.5,356C 207.989,385.147 248.656,392.814 293.5,379C 330.217,366.283 355.883,341.949 370.5,306C 382.334,308.832 394.001,312.499 405.5,317C 380.572,376.317 336.239,410.984 272.5,421C 200.638,426.157 146.471,397.991 110,336.5C 89.8027,297.049 85.636,256.049 97.5,213.5 Z"/></g>
<g><path style="opacity:0.894" fill="#323332" d="M 447.5,225.5 C 451.287,224.814 454.454,225.814 457,228.5C 460.879,254.271 472.546,275.605 492,292.5C 495.969,300.581 493.469,304.081 484.5,303C 462.374,284.669 449.374,261.169 445.5,232.5C 445.319,229.837 445.985,227.503 447.5,225.5 Z"/></g>
<g><path style="opacity:0.9" fill="#323332" d="M 65.5,229.5 C 69.4896,228.616 72.3229,229.949 74,233.5C 68.1027,288.914 83.1027,337.914 119,380.5C 120.378,386.788 117.878,389.621 111.5,389C 86.6219,363.083 70.7885,332.25 64,296.5C 60.3492,276.262 59.6825,255.929 62,235.5C 62.4238,232.975 63.5905,230.975 65.5,229.5 Z"/></g>
<g><path style="opacity:1" fill="#204f5a" d="M 171.5,238.5 C 163.4,285.134 180.4,318.968 222.5,340C 260.258,352.269 292.758,344.102 320,315.5C 325.534,308.431 330.034,300.764 333.5,292.5C 341.768,295.423 350.101,298.256 358.5,301C 358.957,301.414 359.291,301.914 359.5,302.5C 350.138,325.358 335.138,343.525 314.5,357C 266.883,383.309 221.55,379.976 178.5,347C 143.696,314.252 132.029,274.752 143.5,228.5C 152.786,232.039 162.119,235.372 171.5,238.5 Z"/></g>
<g><path style="opacity:1" fill="#fffdf9" d="M 109.5,236.5 C 111.936,236.317 114.103,236.984 116,238.5C 112.587,281.558 124.587,319.558 152,352.5C 152.171,358.313 149.338,360.48 143.5,359C 113.667,325.125 101.167,285.625 106,240.5C 107.032,238.973 108.199,237.64 109.5,236.5 Z"/></g>
<g><path style="opacity:1" fill="#153f46" d="M 171.5,238.5 C 183.833,242.5 196.167,246.5 208.5,250.5C 205.51,276.363 215.843,294.529 239.5,305C 262.038,310.379 280.204,303.879 294,285.5C 295.789,282.259 297.289,278.926 298.5,275.5C 300.5,275.833 302.5,276.167 304.5,276.5C 304.104,279.044 304.771,281.211 306.5,283C 315.335,286.667 324.335,289.834 333.5,292.5C 330.034,300.764 325.534,308.431 320,315.5C 292.758,344.102 260.258,352.269 222.5,340C 180.4,318.968 163.4,285.134 171.5,238.5 Z"/></g>
<g><path style="opacity:1" fill="#fefdfc" d="M 411.5,244.5 C 414.652,243.959 417.152,244.959 419,247.5C 422.795,263.087 428.795,277.754 437,291.5C 441.193,292.562 444.859,294.562 448,297.5C 448.702,303.758 445.868,306.258 439.5,305C 420.287,298.652 401.287,291.819 382.5,284.5C 380.306,279.607 381.806,276.607 387,275.5C 396.893,278.464 406.726,281.631 416.5,285C 417.833,285.667 419.167,285.667 420.5,285C 413.82,272.964 409.986,260.131 409,246.5C 409.995,245.934 410.828,245.267 411.5,244.5 Z"/></g>
<g><path style="opacity:1" fill="#092a2d" d="M 208.5,250.5 C 232.509,258.559 256.509,266.725 280.5,275C 284.447,276.02 287.447,274.853 289.5,271.5C 292.5,272.833 295.5,274.167 298.5,275.5C 297.289,278.926 295.789,282.259 294,285.5C 280.204,303.879 262.038,310.379 239.5,305C 215.843,294.529 205.51,276.363 208.5,250.5 Z"/></g>
<g><path style="opacity:0.897" fill="#363534" d="M 448.5,325.5 C 447.043,329.049 444.377,330.216 440.5,329C 437.609,327.078 436.609,324.578 437.5,321.5C 438.29,320.206 439.29,319.039 440.5,318C 446.176,317.174 448.843,319.674 448.5,325.5 Z"/></g>
<g><path style="opacity:1" fill="#fffdf9" d="M 375.5,323.5 C 381.377,323.206 383.877,325.872 383,331.5C 380.167,337.17 376.834,342.503 373,347.5C 365.746,350.925 362.746,348.591 364,340.5C 367.348,334.459 371.182,328.792 375.5,323.5 Z"/></g>
<g><path style="opacity:0.87" fill="#323332" d="M 416.5,337.5 C 422.021,336.07 425.354,338.07 426.5,343.5C 422.856,351.455 418.689,359.121 414,366.5C 409.585,369.55 405.918,368.883 403,364.5C 402.333,363.167 402.333,361.833 403,360.5C 407.512,352.806 412.012,345.139 416.5,337.5 Z"/></g>
<g><path style="opacity:1" fill="#fffdfa" d="M 348.5,357.5 C 355.163,356.333 357.997,358.999 357,365.5C 313.863,404.741 264.03,416.574 207.5,401C 201.656,399.16 196.156,396.66 191,393.5C 189.31,388.542 190.977,385.542 196,384.5C 246.815,405.04 294.315,399.207 338.5,367C 342.334,364.332 345.667,361.165 348.5,357.5 Z"/></g>
<g><path style="opacity:1" fill="#fffdf9" d="M 164.5,367.5 C 170.34,368.173 175.173,370.84 179,375.5C 180.098,382.743 177.265,385.243 170.5,383C 167.667,380.833 164.833,378.667 162,376.5C 160.927,372.9 161.76,369.9 164.5,367.5 Z"/></g>
<g><path style="opacity:0.905" fill="#323332" d="M 389.5,377.5 C 398.468,376.961 400.968,380.628 397,388.5C 340.062,446.58 272.229,464.746 193.5,443C 169.45,435.066 147.95,422.899 129,406.5C 127.5,399.333 130.333,396.5 137.5,398C 199.78,445.416 266.447,452.416 337.5,419C 357.039,407.964 374.373,394.13 389.5,377.5 Z"/></g>
<g><path style="opacity:0.953" fill="#323333" d="M 442.5,387.5 C 464.056,390.284 472.556,402.284 468,423.5C 460.943,436.609 450.11,441.442 435.5,438C 418.504,429.008 414.337,415.842 423,398.5C 428.068,392.055 434.568,388.388 442.5,387.5 Z"/></g>
<g><path style="opacity:1" fill="#204f5a" d="M 440.5,399.5 C 454.361,400.185 459.528,407.185 456,420.5C 449.224,428.919 441.724,429.586 433.5,422.5C 427.737,412.313 430.07,404.647 440.5,399.5 Z"/></g>
<g><path style="opacity:0.94" fill="#fbbc1c" d="M 365.5,441.5 C 373.651,441.341 376.651,445.341 374.5,453.5C 377.978,453.184 381.312,453.684 384.5,455C 387.167,458.333 387.167,461.667 384.5,465C 381.312,466.316 377.978,466.816 374.5,466.5C 374.665,469.518 374.498,472.518 374,475.5C 370.333,479.5 366.667,479.5 363,475.5C 362.502,472.518 362.335,469.518 362.5,466.5C 356.173,468.004 351.84,465.837 349.5,460C 351.84,454.163 356.173,451.996 362.5,453.5C 361.769,448.927 362.769,444.927 365.5,441.5 Z"/></g>
</svg>
